Coordinates
version=1
nRows=49
nColumns=12
inDegrees=yes

Units are S.I. units (second, meters, Newtons, ...)
Angles are in degrees

endheader
time	SC_y	SC_z	SC_x	AC_y	AC_z	AC_x	GH_y	GH_z	GH_yy	EL_x	PS_y
       0.0              -48.74          7.914          38.83           62.7         -15.37          -14.1          11.78         -7.916         -132.5          127.2          86.77
   0.02705              -48.74          7.914          38.83           62.7         -15.37          -14.1          11.79         -7.903         -132.5          127.2          86.78
   0.05411              -48.74          7.913          38.82           62.7         -15.36          -14.1          11.81         -7.889         -132.5          127.2          86.78
   0.08116              -48.74          7.913          38.82           62.7         -15.36          -14.1          11.82         -7.874         -132.4          127.2          86.79
    0.1082              -48.74          7.913          38.82           62.7         -15.36          -14.1          11.83         -7.859         -132.4          127.2          86.79
    0.1353              -48.74          7.912          38.81           62.7         -15.36          -14.1          11.85         -7.842         -132.3          127.2          86.79
    0.1623              -48.74          7.912          38.81           62.7         -15.36          -14.1          11.86         -7.824         -132.3          127.2           86.8
    0.1894              -48.74          7.911          38.81           62.7         -15.35         -14.09          11.88         -7.805         -132.2          127.2           86.8
    0.2164              -48.74          7.911           38.8           62.7         -15.35         -14.09           11.9         -7.784         -132.2          127.3          86.81
    0.2435              -48.74           7.91           38.8           62.7         -15.35         -14.09          11.91         -7.763         -132.1          127.3          86.81
    0.2705              -48.74           7.91          38.79           62.7         -15.35         -14.09          11.93         -7.739         -132.1          127.3          86.82
    0.2976              -48.74          7.909          38.79           62.7         -15.34         -14.09          11.96         -7.714         -132.0          127.3          86.82
    0.3247              -48.75          7.908          38.78           62.7         -15.34         -14.09          11.98         -7.686         -131.9          127.3          86.83
    0.3517              -48.75          7.908          38.78           62.7         -15.33         -14.08           12.0         -7.657         -131.8          127.3          86.84
    0.3788              -48.75          7.907          38.77           62.7         -15.33         -14.08          12.03         -7.625         -131.8          127.3          86.85
    0.4058              -48.75          7.906          38.76           62.7         -15.33         -14.08          12.06          -7.59         -131.7          127.3          86.85
    0.4329              -48.75          7.905          38.75           62.7         -15.32         -14.07          12.09         -7.552         -131.6          127.3          86.86
    0.4599              -48.75          7.904          38.75           62.7         -15.32         -14.07          12.13         -7.511         -131.5          127.3          86.87
     0.487              -48.76          7.903          38.74           62.7         -15.31         -14.07          12.16         -7.466         -131.3          127.3          86.88
     0.514              -48.76          7.902          38.73           62.7          -15.3         -14.06          12.21         -7.417         -131.2          127.3           86.9
    0.5411              -48.76          7.901          38.71           62.7          -15.3         -14.06          12.25         -7.363         -131.1          127.3          86.91
    0.5681              -48.76          7.899           38.7           62.7         -15.29         -14.06           12.3         -7.304         -130.9          127.3          86.92
    0.5952              -48.76          7.898          38.69           62.7         -15.28         -14.05          12.36         -7.238         -130.7          127.3          86.94
    0.6223              -48.77          7.896          38.67           62.7         -15.27         -14.05          12.42         -7.166         -130.5          127.3          86.96
    0.6493              -48.77          7.894          38.66          62.71         -15.26         -14.04          12.49         -7.085         -130.3          127.3          86.98
    0.6764              -48.78          7.892          38.64          62.71         -15.25         -14.03          12.56         -6.995         -130.1          127.3           87.0
    0.7034              -48.78           7.89          38.62          62.71         -15.24         -14.02          12.65         -6.894         -129.8          127.3          87.02
    0.7305              -48.78          7.887          38.59          62.71         -15.22         -14.02          12.75         -6.781         -129.5          127.3          87.05
    0.7575              -48.79          7.884          38.57          62.71         -15.21         -14.01          12.86         -6.652         -129.1          127.3          87.08
    0.7846               -48.8           7.88          38.53          62.71         -15.19         -13.99          12.98         -6.507         -128.7          127.4          87.12
    0.8116               -48.8          7.876           38.5          62.71         -15.17         -13.98          13.12          -6.34         -128.3          127.4          87.16
    0.8387              -48.81          7.872          38.46          62.71         -15.14         -13.97          13.28          -6.15         -127.8          127.4          87.21
    0.8657              -48.82          7.867          38.41          62.72         -15.11         -13.95          13.47         -5.929         -127.2          127.4          87.26
    0.8928              -48.83          7.861          38.36          62.72         -15.08         -13.93          13.68         -5.674         -126.5          127.4          87.32
    0.9198              -48.84          7.853           38.3          62.72         -15.04         -13.91          13.94         -5.374         -125.7          127.5           87.4
    0.9469              -48.86          7.845          38.22          62.73          -15.0         -13.88          14.24         -5.021         -124.7          127.5          87.48
     0.974              -48.88          7.835          38.14          62.73         -14.95         -13.85          14.59         -4.602         -123.6          127.5          87.59
     1.001               -48.9          7.823          38.03          62.73         -14.88         -13.81          15.02         -4.099         -122.2          127.6          87.71
     1.028              -48.92          7.809           37.9          62.74          -14.8         -13.76          15.54          -3.49         -120.6          127.6          87.86
     1.055              -48.95          7.791          37.75          62.75         -14.71          -13.7          16.17         -2.747         -118.6          127.7          88.04
     1.082              -48.99          7.769          37.55          62.76         -14.59         -13.63          16.94          -1.83         -116.1          127.7          88.26
     1.109              -49.04          7.742          37.31          62.77         -14.45         -13.54          17.91        -0.6865         -113.0          127.8          88.54
     1.136               -49.1          7.708          37.01          62.78         -14.26         -13.43          19.14         0.7543         -109.1          128.0           88.9
     1.163              -49.18          7.664          36.63           62.8         -14.03         -13.29          20.69          2.586         -104.1          128.1          89.34
      1.19              -49.28          7.608          36.14          62.82         -13.73         -13.11          22.68           4.93         -97.81          128.3          89.92
     1.217               -49.4          7.537          35.51          62.85         -13.35         -12.88          25.23          7.938         -89.67          128.6          90.65
     1.245              -49.57          7.445           34.7          62.89         -12.86         -12.58          28.49          11.78         -79.28          128.9          91.59
     1.272              -49.77           7.33          33.69          62.94         -12.24          -12.2          32.58          16.61         -66.21          129.3          92.78
     1.299              -50.02           7.19          32.45           63.0         -11.49         -11.75          37.57           22.5         -50.29          129.8          94.22
